PathFileType	4	(X/Y/Z)	./resultDataOpenSim/trcMotMarkerGrf/sub09/qtm-05-05.trc
DataRate	CameraRate	NumFrames	NumMarkers	Units	OrigDataRate	OrigDataStartFrame	OrigNumFrames
250.000000	250.000000	13	24	m	250.000000	131	521
Frame#	Time	L.Toe.Tip			R.Toe.Tip			L.Ankle.Lat			R.Ankle.Lat			L.Ankle.Med			R.Ankle.Med			L.Heel			R.Heel			L.Knee.Lat			R.Knee.Lat			L.Knee.Med			R.Knee.Med			L.Thigh.Upper			R.Thigh.Upper			L.ASIS			R.ASIS			V.Sacral			L.Acromium			R.Acromium			C7			L.Elbow			R.Elbow			L.Wrist.Lat			R.Wrist.Lat
		X1	Y1	Z1	X2	Y2	Z2	X3	Y3	Z3	X4	Y4	Z4	X5	Y5	Z5	X6	Y6	Z6	X7	Y7	Z7	X8	Y8	Z8	X9	Y9	Z9	X10	Y10	Z10	X11	Y11	Z11	X12	Y12	Z12	X13	Y13	Z13	X14	Y14	Z14	X15	Y15	Z15	X16	Y16	Z16	X17	Y17	Z17	X18	Y18	Z18	X19	Y19	Z19	X20	Y20	Z20	X21	Y21	Z21	X22	Y22	Z22	X23	Y23	Z23	X24	Y24	Z24

131	0.52	-0.28961508	0.088627664	0.039599498	-0.66143985	0.039660115	0.14841651	-0.43966443	0.099520369	0.0041655047	-0.80819527	0.056826117	0.1722415	-0.4183641	0.11914246	0.097939455	-0.78510892	0.094181813	0.083857588	-0.50127954	0.049517583	0.054541792	-0.87534422	0.036445635	0.11831195	-0.44175342	0.51760694	-0.037635236	-0.64690446	0.48407876	0.23777074	-0.44024482	0.51490599	0.087979495	-0.66106357	0.47517122	0.11102436	-0.6404518	0.88849183	-0.077319641	-0.68466542	0.89279899	0.2949454	-0.5730822	0.9719687	-0.0086782011	-0.58294398	0.9752029	0.22899287	-0.74448987	1.0316991	0.10046847	-0.56711885	1.4236825	-0.056494324	-0.59076299	1.4341003	0.27133407	-0.64349593	1.4800175	0.10668489	-0.73886496	1.1007275	-0.11122852	-0.70042604	1.0708767	0.36084443	-0.64689947	0.8581278	-0.15762608	-0.43950141	0.96353978	0.3297731
132	0.524	-0.27256692	0.090039084	0.040609777	-0.66135077	0.039632839	0.14822185	-0.42287919	0.09767239	0.0044375627	-0.80791351	0.056958413	0.17205545	-0.40224385	0.11807047	0.098291073	-0.78501505	0.093951981	0.083467931	-0.48340482	0.04638025	0.054435969	-0.87534575	0.036542697	0.1182427	-0.4360301	0.51548625	-0.037060082	-0.64306903	0.48291546	0.23703866	-0.43493762	0.51288026	0.088378733	-0.65817239	0.47424646	0.11046508	-0.63449023	0.88695629	-0.077057686	-0.67940465	0.8916614	0.29522424	-0.56702292	0.97050016	-0.0082222656	-0.5775809	0.97408605	0.22944985	-0.73879778	1.0304552	0.10017363	-0.56156951	1.4224566	-0.056516929	-0.58571218	1.4330387	0.27130635	-0.63819869	1.478732	0.10657434	-0.73410457	1.1001417	-0.11146674	-0.69472031	1.0694411	0.36087968	-0.64395595	0.85707017	-0.158369	-0.43279325	0.96452149	0.32941174
133	0.528	-0.25578049	0.091553509	0.0414953	-0.66123935	0.039631296	0.14805099	-0.40633038	0.095980923	0.0046497517	-0.80757748	0.057134322	0.17190063	-0.38630766	0.11718017	0.098629252	-0.78495578	0.093746903	0.083076909	-0.4656931	0.043423051	0.054406426	-0.87534355	0.036641777	0.11818899	-0.43040477	0.51329589	-0.036487873	-0.63913475	0.48172193	0.23632109	-0.4295686	0.51069	0.088852863	-0.65527644	0.47325464	0.10992511	-0.6284652	0.88530282	-0.076825204	-0.67406364	0.89045306	0.29550083	-0.56094894	0.96893597	-0.0077753255	-0.57222105	0.97288377	0.22988162	-0.73311897	1.0293495	0.099657033	-0.55597639	1.4211366	-0.056531238	-0.58065884	1.4318906	0.27127379	-0.63290307	1.4773597	0.10646324	-0.72932059	1.099468	-0.111737	-0.68900381	1.0679162	0.36085882	-0.64092875	0.85595264	-0.1591046	-0.42612887	0.96538048	0.32904181
134	0.532	-0.23927231	0.093181792	0.042256399	-0.66112338	0.039637775	0.14789065	-0.39004382	0.094439855	0.0048083494	-0.80722109	0.057295991	0.17176292	-0.37060148	0.1164011	0.098905505	-0.78491519	0.093573868	0.082676576	-0.44818884	0.040687367	0.054404237	-0.87533831	0.036745242	0.11815145	-0.42480677	0.51106478	-0.035939698	-0.63514858	0.48047195	0.2356261	-0.42415686	0.50834815	0.089386743	-0.65229532	0.47220557	0.1093862	-0.62242271	0.88352596	-0.076584387	-0.66864238	0.88917781	0.2957734	-0.55485671	0.96727411	-0.0073407478	-0.56682408	0.97160478	0.23029083	-0.72744771	1.0283284	0.098979264	-0.55030626	1.4197092	-0.056540348	-0.57562504	1.4306609	0.27123884	-0.6276052	1.4758994	0.10635534	-0.72450667	1.0987052	-0.11201652	-0.68330894	1.0663277	0.36085183	-0.63781747	0.8547697	-0.15983757	-0.41951345	0.9661099	0.32866503
135	0.536	-0.22308573	0.094935128	0.042896838	-0.66102313	0.039631148	0.14772837	-0.37402745	0.093070466	0.0049219971	-0.8068861	0.057404363	0.17163746	-0.35516215	0.11568353	0.099105081	-0.78487053	0.093423953	0.082287656	-0.43093976	0.038183244	0.054377834	-0.87532958	0.036860564	0.11812973	-0.41921709	0.5087708	-0.035400396	-0.63113165	0.47914798	0.23495574	-0.41873962	0.5058684	0.089965355	-0.64914059	0.47113902	0.10882378	-0.61640215	0.88163553	-0.076303679	-0.66314734	0.88783841	0.29603688	-0.54874418	0.96551623	-0.006926958	-0.5613896	0.97025417	0.2306766	-0.72174786	1.0271819	0.098299016	-0.54459664	1.4181811	-0.056548085	-0.57061458	1.4293531	0.27120916	-0.62230254	1.4743607	0.1062537	-0.71966359	1.097852	-0.11229941	-0.67765181	1.0646876	0.36088932	-0.63462794	0.8535128	-0.16057069	-0.41295832	0.96671327	0.32828313
136	0.54	-0.2072664	0.096820456	0.043435589	-0.66095377	0.039586983	0.14755698	-0.35826667	0.091905083	0.0050055693	-0.80658882	0.05746726	0.171527	-0.34001941	0.11502155	0.09925939	-0.78479718	0.093288649	0.081944873	-0.4139832	0.035891899	0.054296215	-0.87531707	0.037000525	0.1181223	-0.41364023	0.5064069	-0.03488275	-0.62708339	0.47774002	0.23430758	-0.41334635	0.50327187	0.090568175	-0.64581149	0.4700722	0.10821559	-0.61041215	0.8796475	-0.075986562	-0.65759101	0.88644664	0.29628566	-0.54261138	0.96366855	-0.0065421908	-0.55592757	0.96883388	0.23104055	-0.71593021	1.0257271	0.097651777	-0.53890648	1.4165667	-0.056549953	-0.56561374	1.4279682	0.27118676	-0.61700268	1.4727657	0.10616651	-0.71479294	1.0969065	-0.11258929	-0.67200115	1.0629796	0.36093646	-0.63136572	0.85217701	-0.1613007	-0.40646871	0.96720166	0.32789667
137	0.544	-0.19185011	0.098830748	0.043902715	-0.66092088	0.039488624	0.1473766	-0.34276236	0.090951989	0.0050699592	-0.80632542	0.05750789	0.17142959	-0.32520585	0.11442856	0.099400916	-0.7846831	0.093167315	0.081666496	-0.39734526	0.033785769	0.054148048	-0.87530086	0.037177004	0.11812551	-0.40807507	0.50399731	-0.034422738	-0.62300747	0.47624387	0.23367958	-0.40799175	0.5005827	0.091175806	-0.64240278	0.46897663	0.10754345	-0.60442142	0.8775718	-0.07566418	-0.6519767	0.88501567	0.29650846	-0.53646197	0.96173702	-0.0061884906	-0.55043904	0.96734436	0.23138187	-0.70989316	1.0239343	0.096891387	-0.53325216	1.4148758	-0.05654743	-0.5606052	1.4265062	0.27116627	-0.611717	1.4711351	0.10610424	-0.70989825	1.0958678	-0.11288908	-0.66633724	1.0611934	0.3609617	-0.62803758	0.85076471	-0.16202728	-0.40004029	0.96758231	0.32750542
138	0.548	-0.17685606	0.10094185	0.044331353	-0.66091532	0.039348887	0.14719898	-0.32755765	0.09017946	0.0051086472	-0.80608883	0.057535572	0.17133537	-0.31074565	0.11391245	0.099529164	-0.78453584	0.093060757	0.081445018	-0.38104333	0.031838229	0.053926644	-0.87528115	0.037392409	0.11813225	-0.40251129	0.50156198	-0.034035989	-0.61892779	0.47466247	0.23307158	-0.40269181	0.49780934	0.091777827	-0.63900736	0.46779743	0.10680969	-0.59837439	0.87541202	-0.075366892	-0.64630215	0.88354476	0.29669872	-0.53030124	0.95972634	-0.0058591556	-0.54491552	0.96578489	0.23169268	-0.70364188	1.0218878	0.095950038	-0.52761417	1.4131104	-0.05655295	-0.55558371	1.4249672	0.2711391	-0.6064411	1.4694616	0.1060568	-0.70499187	1.0947384	-0.11319602	-0.66068108	1.0593404	0.36097104	-0.62464758	0.84928549	-0.16275645	-0.39366499	0.96785438	0.32710934
139	0.552	-0.16228713	0.10311737	0.044742108	-0.66091603	0.039206544	0.14704376	-0.31271425	0.089536166	0.0051080842	-0.80586481	0.057555352	0.17124157	-0.29663677	0.11347305	0.099612087	-0.78436892	0.092966438	0.081261389	-0.36508834	0.030025641	0.053622345	-0.87526036	0.037636356	0.11813424	-0.39692745	0.49909202	-0.033709367	-0.61485986	0.47300706	0.23248479	-0.39746888	0.49493744	0.092365457	-0.63561686	0.46649118	0.1060553	-0.59223541	0.87316518	-0.075097449	-0.64060155	0.88200636	0.29689804	-0.5241298	0.95764044	-0.0055460934	-0.53934584	0.96415445	0.23196282	-0.69733232	1.0197054	0.095007328	-0.52197301	1.4112685	-0.05657402	-0.55054805	1.4233495	0.27109886	-0.6011498	1.4677084	0.10598693	-0.70009722	1.093523	-0.11350367	-0.6550465	1.05743	0.36097322	-0.62118824	0.84775332	-0.16349449	-0.38733711	0.96801343	0.32670663
140	0.556	-0.14814085	0.10531725	0.045130207	-0.66090601	0.039091924	0.14692288	-0.29827528	0.088979361	0.0050666279	-0.80561976	0.057591611	0.17116703	-0.28285901	0.1131069	0.099615676	-0.78418858	0.092879454	0.081097778	-0.34949346	0.028328073	0.05322838	-0.87524426	0.037889038	0.11812594	-0.39129218	0.49656985	-0.033427703	-0.61078678	0.47128944	0.2319217	-0.39233548	0.4919515	0.09292795	-0.63213833	0.46506048	0.10533951	-0.58602376	0.87082304	-0.07482065	-0.63497422	0.88033202	0.29723391	-0.51794128	0.95548205	-0.0052511898	-0.53372657	0.96245611	0.23219009	-0.69113556	1.0174759	0.094291527	-0.5163195	1.4093495	-0.056606601	-0.54549053	1.4216526	0.27104646	-0.59581618	1.4658445	0.10586004	-0.69522839	1.092224	-0.11381221	-0.64942005	1.0554565	0.36096054	-0.61764543	0.84617759	-0.16424223	-0.38105788	0.96805507	0.32629397
141	0.56	-0.13441968	0.10749837	0.045482729	-0.66088432	0.039007195	0.14683275	-0.28425205	0.088484656	0.0049937255	-0.80531576	0.057686176	0.17114313	-0.26940804	0.11280078	0.099549623	-0.78399676	0.092795562	0.080940205	-0.33429094	0.026735894	0.052761077	-0.87523835	0.038132605	0.1181052	-0.3855729	0.49399676	-0.033184609	-0.6066839	0.46951061	0.23138541	-0.38727935	0.48885847	0.093459257	-0.62850039	0.46354187	0.10468742	-0.57979494	0.86838153	-0.074487418	-0.62954122	0.87844545	0.29786492	-0.51172671	0.95325512	-0.0049862307	-0.52806746	0.96069795	0.23238365	-0.68510149	1.0152291	0.093848284	-0.51064932	1.407358	-0.056645358	-0.54040761	1.4198823	0.27098624	-0.59042945	1.4638693	0.10567057	-0.69034497	1.090841	-0.11414243	-0.64379019	1.0534135	0.36092512	-0.61401041	0.84454922	-0.16498832	-0.37483222	0.96797362	0.3258688
142	0.564	-0.1211294	0.10960109	0.045815448	-0.66086051	0.038940005	0.14676274	-0.27063511	0.088038511	0.0048994398	-0.80496322	0.05785992	0.1711826	-0.25630808	0.11252608	0.099481264	-0.78379829	0.09271388	0.080779931	-0.31953525	0.025256264	0.052269214	-0.87524339	0.038363739	0.11807044	-0.37973739	0.49138848	-0.032964558	-0.60255151	0.46766184	0.23088284	-0.38226332	0.48568625	0.093956381	-0.62472289	0.46195401	0.10406679	-0.57359474	0.86584437	-0.07407633	-0.62429795	0.87636709	0.29877861	-0.50548132	0.95096499	-0.0047623825	-0.52238117	0.95888691	0.23255711	-0.67918047	1.0129521	0.093579107	-0.50496504	1.4053013	-0.056692742	-0.53530477	1.418047	0.27091915	-0.58500085	1.4618046	0.10543969	-0.68534277	1.0893737	-0.1145326	-0.63815489	1.051303	0.36086372	-0.61028249	0.84284277	-0.16571077	-0.36866057	0.96776332	0.32543038
143	0.568	-0.10826714	0.11155218	0.046178299	-0.66084193	0.038880502	0.14670433	-0.25741208	0.087625036	0.0047934264	-0.80464546	0.058080638	0.17125579	-0.24358205	0.1122527	0.099479755	-0.78359705	0.092637493	0.080615758	-0.30527297	0.023897939	0.051801119	-0.875255	0.038594008	0.11801859	-0.37375713	0.48875209	-0.03272384	-0.59842166	0.46573232	0.23042654	-0.37723708	0.4824673	0.094415412	-0.62086811	0.46028672	0.10343852	-0.56743567	0.86321599	-0.073606232	-0.61902666	0.87425646	0.29967462	-0.49921053	0.94861276	-0.0045796824	-0.51666651	0.95702561	0.23272069	-0.67330639	1.0106221	0.093382436	-0.49927901	1.4031873	-0.056757309	-0.53018724	1.4161531	0.27084566	-0.57955916	1.4596797	0.10520105	-0.68015293	1.0878228	-0.11500085	-0.6325106	1.0491301	0.36077318	-0.60647016	0.84104438	-0.16640045	-0.36253841	0.96742448	0.32498138
